<?xml version="1.0" encoding="UTF-8" standalone="no"?>
<!-- Generator: Adobe Illustrator 19.0.0, SVG Export Plug-In . SVG Version: 6.00 Build 0)  -->

<svg
   xmlns:dc="http://purl.org/dc/elements/1.1/"
   xmlns:cc="http://creativecommons.org/ns#"
   xmlns:rdf="http://www.w3.org/1999/02/22-rdf-syntax-ns#"
   xmlns:svg="http://www.w3.org/2000/svg"
   xmlns="http://www.w3.org/2000/svg"
   xmlns:sodipodi="http://sodipodi.sourceforge.net/DTD/sodipodi-0.dtd"
   xmlns:inkscape="http://www.inkscape.org/namespaces/inkscape"
   version="1.1"
   id="Layer_1"
   x="0px"
   y="0px"
   viewBox="0 0 512 512"
   style="enable-background:new 0 0 512 512;"
   xml:space="preserve"
   sodipodi:docname="doc-svgrepo-com.svg"
   inkscape:version="0.92.5 (2060ec1f9f, 2020-04-08)"><metadata
   id="metadata55"><rdf:RDF><cc:Work
       rdf:about=""><dc:format>image/svg+xml</dc:format><dc:type
         rdf:resource="http://purl.org/dc/dcmitype/StillImage" /></cc:Work></rdf:RDF></metadata><defs
   id="defs53" /><sodipodi:namedview
   pagecolor="#505050"
   bordercolor="#ffffff"
   borderopacity="1"
   objecttolerance="10"
   gridtolerance="10"
   guidetolerance="10"
   inkscape:pageopacity="0"
   inkscape:pageshadow="2"
   inkscape:window-width="1920"
   inkscape:window-height="1011"
   id="namedview51"
   showgrid="false"
   inkscape:zoom="0.4609375"
   inkscape:cx="256"
   inkscape:cy="256"
   inkscape:window-x="1920"
   inkscape:window-y="0"
   inkscape:window-maximized="1"
   inkscape:current-layer="Layer_1" />
<path
   style="fill:#E2E5E7;"
   d="M128,0c-17.6,0-32,14.4-32,32v448c0,17.6,14.4,32,32,32h320c17.6,0,32-14.4,32-32V128L352,0H128z"
   id="path2" />
<path
   style="fill:#B0B7BD;"
   d="M384,128h96L352,0v96C352,113.6,366.4,128,384,128z"
   id="path4" />
<polygon
   style="fill:#CAD1D8;"
   points="480,224 384,128 480,128 "
   id="polygon6" />



<g
   id="g20">
</g>
<g
   id="g22">
</g>
<g
   id="g24">
</g>
<g
   id="g26">
</g>
<g
   id="g28">
</g>
<g
   id="g30">
</g>
<g
   id="g32">
</g>
<g
   id="g34">
</g>
<g
   id="g36">
</g>
<g
   id="g38">
</g>
<g
   id="g40">
</g>
<g
   id="g42">
</g>
<g
   id="g44">
</g>
<g
   id="g46">
</g>
<g
   id="g48">
</g>
<g
   id="g895"><path
     id="path2-3-3"
     d="m 146.53231,304.07151 c 0,-84.89558 68.81684,-153.70684 153.70312,-153.70684 84.89,0 153.70683,68.81126 153.70683,153.70684 0,84.8838 -68.81683,153.6994 -153.70683,153.6994 -84.88628,0 -153.70312,-68.8156 -153.70312,-153.6994 z"
     style="fill:#cad1d8;fill-opacity:1;stroke-width:0.61958075"
     inkscape:connector-curvature="0" /><path
     id="path2-3"
     d="m 135.921,291.80032 c 0,-84.89558 68.81684,-153.70684 153.70312,-153.70684 84.89,0 153.70683,68.81126 153.70683,153.70684 0,84.8838 -68.81683,153.6994 -153.70683,153.6994 -84.88628,0 -153.70312,-68.8156 -153.70312,-153.6994 z"
     style="fill:#25b7d3;stroke-width:0.61958075"
     inkscape:connector-curvature="0" /></g><g
   transform="matrix(0.61958077,0,0,0.61958077,135.921,138.09162)"
   id="g8"><path
     inkscape:connector-curvature="0"
     style="fill:#ffffff"
     d="m 394.463,151.309 -49.615,-49.614 c -10.727,-10.728 -28.119,-10.726 -38.844,0 l -76.631,76.63 c -10.726,10.728 -10.727,28.119 -10e-4,38.847 l 49.615,49.614 c 10.727,10.727 28.119,10.726 38.845,-0.002 l 76.631,-76.63 c 10.725,-10.725 10.726,-28.118 0,-38.845 z m -81.873,84.114 c -6.289,6.288 -16.484,6.289 -22.772,0.001 L 260.734,206.34 c -6.288,-6.288 -6.287,-16.483 0.001,-22.772 l 50.511,-50.511 c 6.287,-6.287 16.482,-6.288 22.771,0 l 29.084,29.085 c 6.288,6.287 6.287,16.482 0,22.77 z"
     id="path4-6" /><path
     inkscape:connector-curvature="0"
     style="fill:#ffffff"
     d="m 266.786,278.986 -49.614,-49.614 c -10.727,-10.727 -28.119,-10.726 -38.845,0 l -76.631,76.632 c -10.726,10.726 -10.727,28.118 0,38.844 l 49.615,49.615 c 10.726,10.727 28.119,10.725 38.844,0 l 76.632,-76.633 c 10.724,-10.725 10.726,-28.117 -10e-4,-38.844 z M 184.912,363.1 c -6.288,6.288 -16.482,6.29 -22.771,10e-4 l -29.084,-29.084 c -6.289,-6.288 -6.288,-16.483 0,-22.771 l 50.512,-50.512 c 6.287,-6.287 16.482,-6.288 22.771,0 l 29.084,29.084 c 6.288,6.289 6.287,16.484 0,22.771 z"
     id="path6" /></g><path
   inkscape:connector-curvature="0"
   style="fill:#48a1af;stroke-width:0.61958075"
   d="m 326.07467,256.84853 -1.49938,-1.50001 c -4.79679,-4.79741 -12.60227,-4.79741 -17.39969,0 l -53.99708,53.99708 c -4.7968,4.7968 -4.7968,12.60228 0,17.39907 l 1.49938,1.50001 c 4.7968,4.79617 12.60228,4.79617 17.39969,0 l 53.99708,-53.99771 c 4.7968,-4.79617 4.7968,-12.60227 0,-17.39844 z"
   id="path10-7" /><path
   inkscape:connector-curvature="0"
   style="fill:#ffffff;stroke-width:0.61958075"
   d="m 269.37746,325.54454 c -3.31352,3.31352 -8.68652,3.31414 -12.00004,6.2e-4 l -1.50001,-1.5 c -3.31352,-3.31352 -3.31352,-8.68652 0,-11.99942 l 53.99771,-53.99771 c 3.31351,-3.31413 8.6859,-3.31351 12.00004,0.001 l 1.49938,1.49939 c 3.3129,3.31352 3.31414,8.6859 0,11.9988 z"
   id="path12-5" /></svg>